<mxfile host="app.diagrams.net" agent="Mozilla/5.0 (Windows NT 10.0; Win64; x64) AppleWebKit/537.36 (KHTML, like Gecko) Chrome/131.0.0.0 Safari/537.36" version="25.0.3">
  <diagram name="PÃ¡gina-1" id="maA3yK0d_ux8RwPpMDyS">
    <mxGraphModel dx="1829" dy="811" grid="1" gridSize="10" guides="1" tooltips="1" connect="1" arrows="1" fold="1" page="1" pageScale="1" pageWidth="1169" pageHeight="827" math="0" shadow="0">
      <root>
        <mxCell id="0" />
        <mxCell id="1" parent="0" />
        <mxCell id="9U1qTvpX64fxGLxcpBmz-4" value="" style="edgeStyle=orthogonalEdgeStyle;rounded=0;orthogonalLoop=1;jettySize=auto;html=1;fontFamily=Helvetica;fontSize=12;fontColor=default;endArrow=ERzeroToMany;endFill=0;entryX=0;entryY=0.5;entryDx=0;entryDy=0;startArrow=ERmandOne;startFill=0;" edge="1" parent="1" source="9U1qTvpX64fxGLxcpBmz-1" target="9U1qTvpX64fxGLxcpBmz-3">
          <mxGeometry relative="1" as="geometry" />
        </mxCell>
        <mxCell id="9U1qTvpX64fxGLxcpBmz-14" style="edgeStyle=orthogonalEdgeStyle;shape=connector;rounded=0;orthogonalLoop=1;jettySize=auto;html=1;strokeColor=default;align=center;verticalAlign=middle;fontFamily=Helvetica;fontSize=12;fontColor=default;labelBackgroundColor=default;endArrow=ERzeroToMany;endFill=0;startArrow=ERmandOne;startFill=0;" edge="1" parent="1" source="9U1qTvpX64fxGLxcpBmz-1" target="9U1qTvpX64fxGLxcpBmz-11">
          <mxGeometry relative="1" as="geometry" />
        </mxCell>
        <mxCell id="9U1qTvpX64fxGLxcpBmz-1" value="tb_membro" style="rounded=0;whiteSpace=wrap;html=1;" vertex="1" parent="1">
          <mxGeometry x="43" y="260" width="150" height="50" as="geometry" />
        </mxCell>
        <mxCell id="9U1qTvpX64fxGLxcpBmz-16" value="" style="edgeStyle=orthogonalEdgeStyle;shape=connector;rounded=0;orthogonalLoop=1;jettySize=auto;html=1;strokeColor=default;align=center;verticalAlign=middle;fontFamily=Helvetica;fontSize=12;fontColor=default;labelBackgroundColor=default;endArrow=ERmandOne;endFill=0;startArrow=ERzeroToMany;startFill=0;" edge="1" parent="1" source="9U1qTvpX64fxGLxcpBmz-3" target="9U1qTvpX64fxGLxcpBmz-15">
          <mxGeometry relative="1" as="geometry" />
        </mxCell>
        <mxCell id="9U1qTvpX64fxGLxcpBmz-3" value="tb_escalaAtividade" style="rounded=0;whiteSpace=wrap;html=1;" vertex="1" parent="1">
          <mxGeometry x="245" y="260" width="150" height="50" as="geometry" />
        </mxCell>
        <mxCell id="9U1qTvpX64fxGLxcpBmz-12" value="" style="edgeStyle=orthogonalEdgeStyle;shape=connector;rounded=0;orthogonalLoop=1;jettySize=auto;html=1;strokeColor=default;align=center;verticalAlign=middle;fontFamily=Helvetica;fontSize=12;fontColor=default;labelBackgroundColor=default;endArrow=ERzeroToMany;endFill=0;startArrow=ERmandOne;startFill=0;" edge="1" parent="1" source="9U1qTvpX64fxGLxcpBmz-7" target="9U1qTvpX64fxGLxcpBmz-11">
          <mxGeometry relative="1" as="geometry" />
        </mxCell>
        <mxCell id="9U1qTvpX64fxGLxcpBmz-7" value="tb_funcao" style="rounded=0;whiteSpace=wrap;html=1;" vertex="1" parent="1">
          <mxGeometry x="43" y="470" width="150" height="50" as="geometry" />
        </mxCell>
        <mxCell id="9U1qTvpX64fxGLxcpBmz-13" style="edgeStyle=orthogonalEdgeStyle;shape=connector;rounded=0;orthogonalLoop=1;jettySize=auto;html=1;strokeColor=default;align=center;verticalAlign=middle;fontFamily=Helvetica;fontSize=12;fontColor=default;labelBackgroundColor=default;endArrow=ERzeroToMany;endFill=0;startArrow=ERmandOne;startFill=0;" edge="1" parent="1" source="9U1qTvpX64fxGLxcpBmz-9" target="9U1qTvpX64fxGLxcpBmz-1">
          <mxGeometry relative="1" as="geometry" />
        </mxCell>
        <mxCell id="9U1qTvpX64fxGLxcpBmz-9" value="tb_tipoMembro" style="rounded=0;whiteSpace=wrap;html=1;" vertex="1" parent="1">
          <mxGeometry x="43" y="150" width="150" height="50" as="geometry" />
        </mxCell>
        <mxCell id="9U1qTvpX64fxGLxcpBmz-11" value="tb_funcaoMembro" style="rounded=0;whiteSpace=wrap;html=1;" vertex="1" parent="1">
          <mxGeometry x="43" y="370" width="150" height="50" as="geometry" />
        </mxCell>
        <mxCell id="9U1qTvpX64fxGLxcpBmz-18" value="" style="edgeStyle=orthogonalEdgeStyle;shape=connector;rounded=0;orthogonalLoop=1;jettySize=auto;html=1;strokeColor=default;align=center;verticalAlign=middle;fontFamily=Helvetica;fontSize=12;fontColor=default;labelBackgroundColor=default;endArrow=ERmandOne;endFill=0;startArrow=ERzeroToMany;startFill=0;" edge="1" parent="1" source="9U1qTvpX64fxGLxcpBmz-15" target="9U1qTvpX64fxGLxcpBmz-17">
          <mxGeometry relative="1" as="geometry" />
        </mxCell>
        <mxCell id="9U1qTvpX64fxGLxcpBmz-15" value="tb_instrumento" style="rounded=0;whiteSpace=wrap;html=1;" vertex="1" parent="1">
          <mxGeometry x="245" y="370" width="150" height="50" as="geometry" />
        </mxCell>
        <mxCell id="9U1qTvpX64fxGLxcpBmz-17" value="tb_tipoI&lt;span style=&quot;background-color: initial;&quot;&gt;nstrumento&lt;/span&gt;" style="rounded=0;whiteSpace=wrap;html=1;" vertex="1" parent="1">
          <mxGeometry x="245" y="470" width="150" height="50" as="geometry" />
        </mxCell>
        <mxCell id="9U1qTvpX64fxGLxcpBmz-21" value="" style="edgeStyle=orthogonalEdgeStyle;shape=connector;rounded=0;orthogonalLoop=1;jettySize=auto;html=1;strokeColor=default;align=center;verticalAlign=middle;fontFamily=Helvetica;fontSize=12;fontColor=default;labelBackgroundColor=default;endArrow=ERzeroToMany;endFill=0;exitX=0;exitY=0.75;exitDx=0;exitDy=0;entryX=0.5;entryY=0;entryDx=0;entryDy=0;startArrow=ERmandOne;startFill=0;" edge="1" parent="1" source="9U1qTvpX64fxGLxcpBmz-19" target="9U1qTvpX64fxGLxcpBmz-3">
          <mxGeometry relative="1" as="geometry" />
        </mxCell>
        <mxCell id="9U1qTvpX64fxGLxcpBmz-23" value="" style="edgeStyle=orthogonalEdgeStyle;shape=connector;rounded=0;orthogonalLoop=1;jettySize=auto;html=1;strokeColor=default;align=center;verticalAlign=middle;fontFamily=Helvetica;fontSize=12;fontColor=default;labelBackgroundColor=default;endArrow=ERmandOne;endFill=0;exitX=0;exitY=0.25;exitDx=0;exitDy=0;startArrow=ERzeroToMany;startFill=0;" edge="1" parent="1" source="9U1qTvpX64fxGLxcpBmz-19" target="9U1qTvpX64fxGLxcpBmz-22">
          <mxGeometry relative="1" as="geometry" />
        </mxCell>
        <mxCell id="9U1qTvpX64fxGLxcpBmz-25" value="" style="edgeStyle=orthogonalEdgeStyle;shape=connector;rounded=0;orthogonalLoop=1;jettySize=auto;html=1;strokeColor=default;align=center;verticalAlign=middle;fontFamily=Helvetica;fontSize=12;fontColor=default;labelBackgroundColor=default;endArrow=ERzeroToOne;endFill=0;exitX=0.5;exitY=1;exitDx=0;exitDy=0;startArrow=ERzeroToOne;startFill=0;" edge="1" parent="1" source="9U1qTvpX64fxGLxcpBmz-19" target="9U1qTvpX64fxGLxcpBmz-24">
          <mxGeometry relative="1" as="geometry" />
        </mxCell>
        <mxCell id="9U1qTvpX64fxGLxcpBmz-28" style="edgeStyle=orthogonalEdgeStyle;shape=connector;rounded=0;orthogonalLoop=1;jettySize=auto;html=1;exitX=0.5;exitY=0;exitDx=0;exitDy=0;strokeColor=default;align=center;verticalAlign=middle;fontFamily=Helvetica;fontSize=12;fontColor=default;labelBackgroundColor=default;endArrow=ERzeroToMany;endFill=0;startArrow=ERmandOne;startFill=0;" edge="1" parent="1" source="9U1qTvpX64fxGLxcpBmz-19" target="9U1qTvpX64fxGLxcpBmz-29">
          <mxGeometry relative="1" as="geometry">
            <mxPoint x="675" y="300" as="targetPoint" />
          </mxGeometry>
        </mxCell>
        <mxCell id="9U1qTvpX64fxGLxcpBmz-31" value="" style="edgeStyle=orthogonalEdgeStyle;shape=connector;rounded=0;orthogonalLoop=1;jettySize=auto;html=1;strokeColor=default;align=center;verticalAlign=middle;fontFamily=Helvetica;fontSize=12;fontColor=default;labelBackgroundColor=default;endArrow=ERzeroToMany;endFill=0;exitX=1;exitY=0.5;exitDx=0;exitDy=0;startArrow=ERmandOne;startFill=0;" edge="1" parent="1" source="9U1qTvpX64fxGLxcpBmz-19" target="9U1qTvpX64fxGLxcpBmz-30">
          <mxGeometry relative="1" as="geometry" />
        </mxCell>
        <mxCell id="9U1qTvpX64fxGLxcpBmz-19" value="tb_atividade" style="rounded=0;whiteSpace=wrap;html=1;" vertex="1" parent="1">
          <mxGeometry x="445" y="190" width="150" height="50" as="geometry" />
        </mxCell>
        <mxCell id="9U1qTvpX64fxGLxcpBmz-22" value="tb_tipoAtividade" style="rounded=0;whiteSpace=wrap;html=1;strokeColor=default;align=center;verticalAlign=middle;fontFamily=Helvetica;fontSize=12;fontColor=default;labelBackgroundColor=default;fillColor=default;" vertex="1" parent="1">
          <mxGeometry x="245" y="120" width="150" height="50" as="geometry" />
        </mxCell>
        <mxCell id="9U1qTvpX64fxGLxcpBmz-27" value="" style="edgeStyle=orthogonalEdgeStyle;shape=connector;rounded=0;orthogonalLoop=1;jettySize=auto;html=1;strokeColor=default;align=center;verticalAlign=middle;fontFamily=Helvetica;fontSize=12;fontColor=default;labelBackgroundColor=default;endArrow=ERmandOne;endFill=0;startArrow=ERzeroToMany;startFill=0;shadow=0;" edge="1" parent="1" source="9U1qTvpX64fxGLxcpBmz-24" target="9U1qTvpX64fxGLxcpBmz-26">
          <mxGeometry relative="1" as="geometry" />
        </mxCell>
        <mxCell id="9U1qTvpX64fxGLxcpBmz-24" value="tb_listaComida" style="rounded=0;whiteSpace=wrap;html=1;" vertex="1" parent="1">
          <mxGeometry x="445" y="295" width="150" height="50" as="geometry" />
        </mxCell>
        <mxCell id="9U1qTvpX64fxGLxcpBmz-26" value="tb_tipoComida" style="rounded=0;whiteSpace=wrap;html=1;" vertex="1" parent="1">
          <mxGeometry x="445" y="405" width="150" height="50" as="geometry" />
        </mxCell>
        <mxCell id="9U1qTvpX64fxGLxcpBmz-29" value="tb_ausencia" style="rounded=0;whiteSpace=wrap;html=1;" vertex="1" parent="1">
          <mxGeometry x="445" y="60" width="150" height="50" as="geometry" />
        </mxCell>
        <mxCell id="9U1qTvpX64fxGLxcpBmz-33" value="" style="edgeStyle=orthogonalEdgeStyle;shape=connector;rounded=0;orthogonalLoop=1;jettySize=auto;html=1;strokeColor=default;align=center;verticalAlign=middle;fontFamily=Helvetica;fontSize=12;fontColor=default;labelBackgroundColor=default;endArrow=ERzeroToOne;endFill=0;startArrow=ERzeroToMany;startFill=0;" edge="1" parent="1" source="9U1qTvpX64fxGLxcpBmz-30" target="9U1qTvpX64fxGLxcpBmz-32">
          <mxGeometry relative="1" as="geometry">
            <Array as="points">
              <mxPoint x="863" y="353" />
              <mxPoint x="710" y="353" />
            </Array>
          </mxGeometry>
        </mxCell>
        <mxCell id="9U1qTvpX64fxGLxcpBmz-35" value="" style="edgeStyle=orthogonalEdgeStyle;shape=connector;rounded=0;orthogonalLoop=1;jettySize=auto;html=1;strokeColor=default;align=center;verticalAlign=middle;fontFamily=Helvetica;fontSize=12;fontColor=default;labelBackgroundColor=default;endArrow=ERzeroToOne;endFill=0;exitX=0.75;exitY=1;exitDx=0;exitDy=0;startArrow=ERzeroToMany;startFill=0;" edge="1" parent="1" source="9U1qTvpX64fxGLxcpBmz-30" target="9U1qTvpX64fxGLxcpBmz-34">
          <mxGeometry relative="1" as="geometry">
            <Array as="points">
              <mxPoint x="938" y="353" />
              <mxPoint x="1080" y="353" />
            </Array>
          </mxGeometry>
        </mxCell>
        <mxCell id="9U1qTvpX64fxGLxcpBmz-30" value="tb_musicaAtividade" style="rounded=0;whiteSpace=wrap;html=1;strokeColor=default;align=center;verticalAlign=middle;fontFamily=Helvetica;fontSize=12;fontColor=default;labelBackgroundColor=default;fillColor=default;" vertex="1" parent="1">
          <mxGeometry x="825" y="260" width="150" height="50" as="geometry" />
        </mxCell>
        <mxCell id="9U1qTvpX64fxGLxcpBmz-37" value="" style="edgeStyle=orthogonalEdgeStyle;shape=connector;rounded=0;orthogonalLoop=1;jettySize=auto;html=1;strokeColor=default;align=center;verticalAlign=middle;fontFamily=Helvetica;fontSize=12;fontColor=default;labelBackgroundColor=default;endArrow=ERoneToMany;endFill=0;startArrow=ERmandOne;startFill=0;" edge="1" parent="1" source="9U1qTvpX64fxGLxcpBmz-32" target="9U1qTvpX64fxGLxcpBmz-36">
          <mxGeometry relative="1" as="geometry" />
        </mxCell>
        <mxCell id="9U1qTvpX64fxGLxcpBmz-32" value="tb_medley" style="rounded=0;whiteSpace=wrap;html=1;strokeColor=default;align=center;verticalAlign=middle;fontFamily=Helvetica;fontSize=12;fontColor=default;labelBackgroundColor=default;fillColor=default;" vertex="1" parent="1">
          <mxGeometry x="635" y="383" width="150" height="50" as="geometry" />
        </mxCell>
        <mxCell id="9U1qTvpX64fxGLxcpBmz-42" style="edgeStyle=orthogonalEdgeStyle;shape=connector;rounded=0;orthogonalLoop=1;jettySize=auto;html=1;strokeColor=default;align=center;verticalAlign=middle;fontFamily=Helvetica;fontSize=12;fontColor=default;labelBackgroundColor=default;endArrow=ERoneToMany;endFill=0;startArrow=ERmandOne;startFill=0;" edge="1" parent="1" source="9U1qTvpX64fxGLxcpBmz-34" target="9U1qTvpX64fxGLxcpBmz-40">
          <mxGeometry relative="1" as="geometry" />
        </mxCell>
        <mxCell id="9U1qTvpX64fxGLxcpBmz-34" value="tb_musica" style="rounded=0;whiteSpace=wrap;html=1;strokeColor=default;align=center;verticalAlign=middle;fontFamily=Helvetica;fontSize=12;fontColor=default;labelBackgroundColor=default;fillColor=default;" vertex="1" parent="1">
          <mxGeometry x="1005" y="383" width="150" height="50" as="geometry" />
        </mxCell>
        <mxCell id="9U1qTvpX64fxGLxcpBmz-39" value="" style="edgeStyle=orthogonalEdgeStyle;shape=connector;rounded=0;orthogonalLoop=1;jettySize=auto;html=1;strokeColor=default;align=center;verticalAlign=middle;fontFamily=Helvetica;fontSize=12;fontColor=default;labelBackgroundColor=default;endArrow=ERmandOne;endFill=0;entryX=0.25;entryY=1;entryDx=0;entryDy=0;startArrow=ERoneToMany;startFill=0;" edge="1" parent="1" source="9U1qTvpX64fxGLxcpBmz-36" target="9U1qTvpX64fxGLxcpBmz-38">
          <mxGeometry relative="1" as="geometry" />
        </mxCell>
        <mxCell id="9U1qTvpX64fxGLxcpBmz-44" value="" style="edgeStyle=orthogonalEdgeStyle;shape=connector;rounded=0;orthogonalLoop=1;jettySize=auto;html=1;strokeColor=default;align=center;verticalAlign=middle;fontFamily=Helvetica;fontSize=12;fontColor=default;labelBackgroundColor=default;endArrow=ERoneToMany;endFill=0;startArrow=ERmandOne;startFill=0;" edge="1" parent="1" source="9U1qTvpX64fxGLxcpBmz-36" target="9U1qTvpX64fxGLxcpBmz-43">
          <mxGeometry relative="1" as="geometry" />
        </mxCell>
        <mxCell id="9U1qTvpX64fxGLxcpBmz-36" value="tb_trechoMedley" style="rounded=0;whiteSpace=wrap;html=1;strokeColor=default;align=center;verticalAlign=middle;fontFamily=Helvetica;fontSize=12;fontColor=default;labelBackgroundColor=default;fillColor=default;" vertex="1" parent="1">
          <mxGeometry x="635" y="513" width="150" height="50" as="geometry" />
        </mxCell>
        <mxCell id="9U1qTvpX64fxGLxcpBmz-41" value="" style="edgeStyle=orthogonalEdgeStyle;shape=connector;rounded=0;orthogonalLoop=1;jettySize=auto;html=1;strokeColor=default;align=center;verticalAlign=middle;fontFamily=Helvetica;fontSize=12;fontColor=default;labelBackgroundColor=default;endArrow=ERoneToMany;endFill=0;exitX=0.75;exitY=1;exitDx=0;exitDy=0;entryX=0;entryY=0.5;entryDx=0;entryDy=0;startArrow=ERmandOne;startFill=0;" edge="1" parent="1" source="9U1qTvpX64fxGLxcpBmz-38" target="9U1qTvpX64fxGLxcpBmz-40">
          <mxGeometry relative="1" as="geometry" />
        </mxCell>
        <mxCell id="9U1qTvpX64fxGLxcpBmz-38" value="tb_tipoTrecho" style="rounded=0;whiteSpace=wrap;html=1;strokeColor=default;align=center;verticalAlign=middle;fontFamily=Helvetica;fontSize=12;fontColor=default;labelBackgroundColor=default;fillColor=default;" vertex="1" parent="1">
          <mxGeometry x="825" y="433" width="150" height="50" as="geometry" />
        </mxCell>
        <mxCell id="9U1qTvpX64fxGLxcpBmz-48" value="" style="edgeStyle=orthogonalEdgeStyle;shape=connector;rounded=0;orthogonalLoop=1;jettySize=auto;html=1;strokeColor=default;align=center;verticalAlign=middle;fontFamily=Helvetica;fontSize=12;fontColor=default;labelBackgroundColor=default;endArrow=ERoneToMany;endFill=0;startArrow=ERmandOne;startFill=0;" edge="1" parent="1" source="9U1qTvpX64fxGLxcpBmz-40" target="9U1qTvpX64fxGLxcpBmz-47">
          <mxGeometry relative="1" as="geometry" />
        </mxCell>
        <mxCell id="9U1qTvpX64fxGLxcpBmz-40" value="tb_trechoMusica" style="rounded=0;whiteSpace=wrap;html=1;strokeColor=default;align=center;verticalAlign=middle;fontFamily=Helvetica;fontSize=12;fontColor=default;labelBackgroundColor=default;fillColor=default;" vertex="1" parent="1">
          <mxGeometry x="1005" y="513" width="150" height="50" as="geometry" />
        </mxCell>
        <mxCell id="9U1qTvpX64fxGLxcpBmz-46" value="" style="edgeStyle=orthogonalEdgeStyle;shape=connector;rounded=0;orthogonalLoop=1;jettySize=auto;html=1;strokeColor=default;align=center;verticalAlign=middle;fontFamily=Helvetica;fontSize=12;fontColor=default;labelBackgroundColor=default;endArrow=ERmandOne;endFill=0;entryX=0.25;entryY=1;entryDx=0;entryDy=0;startArrow=ERoneToMany;startFill=0;" edge="1" parent="1" source="9U1qTvpX64fxGLxcpBmz-43" target="9U1qTvpX64fxGLxcpBmz-45">
          <mxGeometry relative="1" as="geometry" />
        </mxCell>
        <mxCell id="9U1qTvpX64fxGLxcpBmz-43" value="tb_tomTrechoMedley" style="rounded=0;whiteSpace=wrap;html=1;strokeColor=default;align=center;verticalAlign=middle;fontFamily=Helvetica;fontSize=12;fontColor=default;labelBackgroundColor=default;fillColor=default;" vertex="1" parent="1">
          <mxGeometry x="635" y="643" width="150" height="50" as="geometry" />
        </mxCell>
        <mxCell id="9U1qTvpX64fxGLxcpBmz-45" value="tb_tonalidade" style="rounded=0;whiteSpace=wrap;html=1;strokeColor=default;align=center;verticalAlign=middle;fontFamily=Helvetica;fontSize=12;fontColor=default;labelBackgroundColor=default;fillColor=default;" vertex="1" parent="1">
          <mxGeometry x="825" y="563" width="150" height="50" as="geometry" />
        </mxCell>
        <mxCell id="9U1qTvpX64fxGLxcpBmz-49" style="edgeStyle=orthogonalEdgeStyle;shape=connector;rounded=0;orthogonalLoop=1;jettySize=auto;html=1;entryX=0.75;entryY=1;entryDx=0;entryDy=0;strokeColor=default;align=center;verticalAlign=middle;fontFamily=Helvetica;fontSize=12;fontColor=default;labelBackgroundColor=default;endArrow=ERoneToMany;endFill=0;startArrow=ERoneToMany;startFill=0;" edge="1" parent="1" source="9U1qTvpX64fxGLxcpBmz-47" target="9U1qTvpX64fxGLxcpBmz-45">
          <mxGeometry relative="1" as="geometry" />
        </mxCell>
        <mxCell id="9U1qTvpX64fxGLxcpBmz-47" value="tb_tomTrechoMusica" style="rounded=0;whiteSpace=wrap;html=1;strokeColor=default;align=center;verticalAlign=middle;fontFamily=Helvetica;fontSize=12;fontColor=default;labelBackgroundColor=default;fillColor=default;" vertex="1" parent="1">
          <mxGeometry x="1005" y="643" width="150" height="50" as="geometry" />
        </mxCell>
      </root>
    </mxGraphModel>
  </diagram>
</mxfile>
